<?xml version="1.0" encoding="UTF-8"?>
<svg width="1920" height="1080" viewBox="0 0 1920 1080" xmlns="http://www.w3.org/2000/svg">
    <!-- Sky Gradient -->
    <defs>
        <linearGradient id="skyGradient" x1="0%" y1="0%" x2="0%" y2="100%">
            <stop offset="0%" style="stop-color:#87CEEB;stop-opacity:1" />
            <stop offset="100%" style="stop-color:#E0F7FA;stop-opacity:1" />
        </linearGradient>
        <linearGradient id="fieldGradient" x1="0%" y1="0%" x2="0%" y2="100%">
            <stop offset="0%" style="stop-color:#8BC34A;stop-opacity:1" />
            <stop offset="100%" style="stop-color:#4CAF50;stop-opacity:1" />
        </linearGradient>
    </defs>

    <!-- Background -->
    <rect width="100%" height="100%" fill="url(#skyGradient)"/>
    
    <!-- Fields -->
    <path d="M0 400 L1920 500 L1920 1080 L0 1080 Z" fill="url(#fieldGradient)"/>
    
    <!-- Mountains -->
    <path d="M0 300 L400 100 L800 350 L1200 150 L1600 300 L1920 200 L1920 500 L0 400 Z" 
          fill="#90A4AE" opacity="0.6"/>
    
    <!-- Sun -->
    <circle cx="1600" cy="200" r="80" fill="#FFD54F"/>
    
    <!-- Clouds -->
    <g fill="#FFFFFF" opacity="0.8">
        <ellipse cx="300" cy="150" rx="100" ry="40"/>
        <ellipse cx="800" cy="100" rx="120" ry="50"/>
        <ellipse cx="1200" cy="180" rx="90" ry="35"/>
    </g>
    
    <!-- Farm Elements -->
    <g transform="translate(960, 700)">
        <!-- Barn -->
        <rect x="-50" y="-80" width="100" height="80" fill="#C62828"/>
        <path d="M-60 -80 L0 -120 L60 -80" fill="#B71C1C"/>
        
        <!-- Trees -->
        <g transform="translate(-150, -20)">
            <circle cx="0" cy="-40" r="30" fill="#2E7D32"/>
            <rect x="-5" y="-20" width="10" height="20" fill="#3E2723"/>
        </g>
        <g transform="translate(150, -20)">
            <circle cx="0" cy="-40" r="30" fill="#2E7D32"/>
            <rect x="-5" y="-20" width="10" height="20" fill="#3E2723"/>
        </g>
    </g>
</svg> 